<svg width="1200" height="800" viewBox="0 0 1200 800" xmlns="http://www.w3.org/2000/svg">
<defs>
<linearGradient id="skyMenu" x1="0" y1="0" x2="0" y2="1">
<stop offset="0%" stop-color="#8ec9f0"/>
<stop offset="60%" stop-color="#bfe3f7"/>
<stop offset="100%" stop-color="#fff3d0"/>
</linearGradient>
</defs>
<rect x="0" y="0" width="1200" height="800" fill="url(#skyMenu)"/>
<circle cx="990" cy="160" r="95" fill="#fff1b8"/>
<circle cx="990" cy="160" r="66" fill="#ffd95e"/>
<g fill="#ffffff" opacity="0.95">
<ellipse cx="210" cy="160" rx="80" ry="38"/>
<ellipse cx="280" cy="141" rx="60" ry="32"/>
<ellipse cx="158" cy="141" rx="52" ry="28"/>
</g>
<g fill="#ffffff" opacity="0.9">
<ellipse cx="670" cy="265" rx="67" ry="32"/>
<ellipse cx="723" cy="250" rx="49" ry="25"/>
<ellipse cx="626" cy="254" rx="42" ry="23"/>
</g>
<circle cx="106" cy="88" r="7" fill="#fff2b0"/>
<circle cx="441" cy="70" r="5" fill="#fff2b0"/>
<circle cx="829" cy="97" r="5" fill="#fff2b0"/>
<circle cx="1094" cy="353" r="5" fill="#fff2b0"/>
<circle cx="388" cy="388" r="39" fill="#ffffff" opacity="0.9"/>
<text x="388" y="402" text-anchor="middle" font-family="Arial, sans-serif" font-size="38" font-weight="bold" fill="#3a8fd1">A</text>
<circle cx="829" cy="459" r="39" fill="#ffffff" opacity="0.9"/>
<text x="829" y="473" text-anchor="middle" font-family="Arial, sans-serif" font-size="38" font-weight="bold" fill="#e0663f">B</text>
<circle cx="582" cy="529" r="39" fill="#ffffff" opacity="0.9"/>
<text x="582" y="543" text-anchor="middle" font-family="Arial, sans-serif" font-size="38" font-weight="bold" fill="#4fae5e">C</text>
<path d="M0 600 Q300 512 600 600 T1200 600 V800 H0 Z" fill="#8bc76b"/>
<path d="M0 671 Q300 583 600 671 T1200 671 V800 H0 Z" fill="#6fb355"/>
</svg>
